<svg version="1.1" xmlns="http://www.w3.org/2000/svg" xmlns:xlink="http://www.w3.org/1999/xlink" width="24" height="24" viewBox="0,0,256,256"><defs><clipPath id="clip-1"><rect x="0" y="0" width="24" height="24" id="clip0_317_544" fill="none"></rect></clipPath></defs><g fill="none" fill-rule="nonzero" stroke="none" stroke-width="1" stroke-linecap="butt" stroke-linejoin="miter" stroke-miterlimit="10" stroke-dasharray="" stroke-dashoffset="0" font-family="none" font-weight="none" font-size="none" text-anchor="none" style="mix-blend-mode: normal"><g transform="scale(10.66667,10.66667)"><g clip-path="url(#clip-1)"><path d="M12.0002,11.3333c0.9229,0 1.8252,-0.2737 2.5926,-0.7864c0.7675,-0.5128 1.3656,-1.24165 1.7188,-2.09437c0.3532,-0.85272 0.4456,-1.79104 0.2656,-2.69628c-0.1801,-0.90525 -0.6246,-1.73677 -1.2772,-2.38941c-0.6526,-0.65265 -1.4842,-1.0971 -2.3894,-1.27717c-0.9053,-0.18006 -1.8436,-0.08765 -2.6963,0.26556c-0.85271,0.35321 -1.58155,0.95135 -2.09433,1.71878c-0.51278,0.76743 -0.78647,1.66968 -0.78647,2.59266c0,1.23768 0.49166,2.42466 1.36683,3.29983c0.87517,0.8752 2.06217,1.3668 3.29987,1.3668zM12.0002,3.33334c0.6592,0 1.3037,0.19549 1.8519,0.56176c0.5481,0.36628 0.9754,0.88687 1.2277,1.49596c0.2523,0.60909 0.3183,1.27931 0.1897,1.92591c-0.1287,0.64661 -0.4461,1.24055 -0.9123,1.70672c-0.4662,0.46618 -1.0601,0.78365 -1.7067,0.91227c-0.6466,0.12864 -1.3169,0.0626 -1.9259,-0.18969c-0.6091,-0.25229 -1.12973,-0.67953 -1.496,-1.2277c-0.36627,-0.54816 -0.56177,-1.19263 -0.56177,-1.8519c0,-0.88405 0.35119,-1.7319 0.97631,-2.35702c0.62516,-0.62512 1.47296,-0.97631 2.35706,-0.97631z" fill-opacity="0.8" fill="#ffffff"></path><path d="M20.3135,16.2467c-1.0691,-1.13 -2.3575,-2.0301 -3.7863,-2.6452c-1.4288,-0.6152 -2.9681,-0.9324 -4.5237,-0.9324c-1.5556,0 -3.09487,0.3172 -4.52369,0.9324c-1.42883,0.6151 -2.71718,1.5152 -3.78631,2.6452c-0.23179,0.2475 -0.36053,0.5741 -0.36,0.9133v3.5067c0,0.3536 0.14047,0.6927 0.39052,0.9428c0.25005,0.25 0.58919,0.3905 0.94281,0.3905h14.66667c0.3536,0 0.6928,-0.1405 0.9428,-0.3905c0.2501,-0.2501 0.3905,-0.5892 0.3905,-0.9428v-3.5067c0.0024,-0.3382 -0.1239,-0.6647 -0.3533,-0.9133zM19.3335,20.6667h-14.66667v-3.5134c0.94482,-0.9949 2.0822,-1.7871 3.34291,-2.3284c1.26071,-0.5414 2.61836,-0.8206 3.99046,-0.8206c1.372,0 2.7297,0.2792 3.9904,0.8206c1.2607,0.5413 2.3981,1.3335 3.3429,2.3284z" fill-opacity="0.8" fill="#ffffff"></path></g></g></g></svg>