<svg version="1.1" xmlns="http://www.w3.org/2000/svg" xmlns:xlink="http://www.w3.org/1999/xlink" width="24" height="24" viewBox="0,0,256,256"><g fill-opacity="0.8" fill="#ffffff" fill-rule="nonzero" stroke="none" stroke-width="1" stroke-linecap="butt" stroke-linejoin="miter" stroke-miterlimit="10" stroke-dasharray="" stroke-dashoffset="0" font-family="none" font-weight="none" font-size="none" text-anchor="none" style="mix-blend-mode: normal"><g transform="translate(13.14377,0.00006) scale(10.66667,10.66667)"><path d="M8.8125,20.25c0,0.2596 -0.07698,0.5133 -0.2212,0.7292c-0.14422,0.2158 -0.3492,0.3841 -0.58903,0.4834c-0.23983,0.0993 -0.50373,0.1253 -0.75833,0.0747c-0.2546,-0.0507 -0.48846,-0.1757 -0.67202,-0.3592c-0.18356,-0.1836 -0.30856,-0.4174 -0.3592,-0.672c-0.05064,-0.2546 -0.02465,-0.5185 0.07469,-0.7584c0.09934,-0.2398 0.26756,-0.4448 0.4834,-0.589c0.21584,-0.1442 0.4696,-0.2212 0.72919,-0.2212c0.3481,0 0.68194,0.1383 0.92808,0.3844c0.24614,0.2462 0.38442,0.58 0.38442,0.9281zM17.25,18.9375c-0.2596,0 -0.5133,0.077 -0.7292,0.2212c-0.2158,0.1442 -0.3841,0.3492 -0.4834,0.589c-0.0993,0.2399 -0.1253,0.5038 -0.0747,0.7584c0.0507,0.2546 0.1757,0.4884 0.3592,0.672c0.1836,0.1835 0.4174,0.3085 0.672,0.3592c0.2546,0.0506 0.5185,0.0246 0.7584,-0.0747c0.2398,-0.0993 0.4448,-0.2676 0.589,-0.4834c0.1442,-0.2159 0.2212,-0.4696 0.2212,-0.7292c0,-0.3481 -0.1383,-0.6819 -0.3844,-0.9281c-0.2462,-0.2461 -0.58,-0.3844 -0.9281,-0.3844zM21.3281,6.9l-2.475,8.6625c-0.1253,0.4309 -0.3865,0.8097 -0.7447,1.08c-0.3581,0.2703 -0.7941,0.4176 -1.2428,0.42h-8.98123c-0.44871,-0.0024 -0.88465,-0.1497 -1.24281,-0.42c-0.35816,-0.2703 -0.61937,-0.6491 -0.74469,-1.08l-2.475,-8.64375v-0.02813l-0.91875,-3.1875c-0.0087,-0.04049 -0.03125,-0.07668 -0.06376,-0.10235c-0.03251,-0.02566 -0.07295,-0.0392 -0.11436,-0.03827h-1.575c-0.14918,0 -0.29226,-0.05926 -0.39775,-0.16475c-0.10549,-0.10549 -0.16475,-0.24857 -0.16475,-0.39775c0,-0.14918 0.05926,-0.29226 0.16475,-0.39775c0.10549,-0.10549 0.24856,-0.16475 0.39775,-0.16475h1.575c0.28601,0.00101 0.56399,0.09477 0.79219,0.26719c0.2282,0.17242 0.39433,0.4142 0.47343,0.68906l0.79688,2.79375h16.3969c0.0873,0 0.1734,0.02033 0.2515,0.05938c0.0781,0.03906 0.1461,0.09576 0.1985,0.16562c0.0519,0.06867 0.0873,0.14833 0.1035,0.23285c0.0163,0.08452 0.0129,0.17163 -0.0098,0.25465zM20.0437,7.3125h-15.33745l2.27812,7.9406c0.0551,0.1965 0.17279,0.3696 0.33522,0.4932c0.16243,0.1235 0.36073,0.1906 0.56478,0.1912h8.98123c0.2041,-0.0006 0.4024,-0.0677 0.5648,-0.1912c0.1624,-0.1236 0.2801,-0.2967 0.3352,-0.4932z"></path></g></g></svg>