<svg version="1.1" xmlns="http://www.w3.org/2000/svg" xmlns:xlink="http://www.w3.org/1999/xlink" width="24" height="24" viewBox="0,0,256,256"><g fill-opacity="0.8" fill="#ffffff" fill-rule="nonzero" stroke="none" stroke-width="1" stroke-linecap="butt" stroke-linejoin="miter" stroke-miterlimit="10" stroke-dasharray="" stroke-dashoffset="0" font-family="none" font-weight="none" font-size="none" text-anchor="none" style="mix-blend-mode: normal"><g transform="translate(-2.77451,-2.76505) scale(10.66667,10.66667)"><path d="M10.2499,2c1.5679,-0.00017 3.1035,0.44648 4.4267,1.28763c1.3233,0.84115 2.3794,2.04197 3.0447,3.46178c0.6653,1.41981 0.9122,2.99981 0.7118,4.55489c-0.2003,1.5551 -0.8397,3.0209 -1.8432,4.2257l5.69,5.69c0.0987,0.0917 0.1709,0.2083 0.2089,0.3375c0.038,0.1293 0.0405,0.2664 0.0071,0.3969c-0.0334,0.1305 -0.1013,0.2496 -0.1967,0.3448c-0.0954,0.0951 -0.2147,0.1628 -0.3453,0.1958c-0.1304,0.0334 -0.2674,0.0311 -0.3965,-0.0068c-0.1292,-0.0378 -0.2458,-0.1097 -0.3375,-0.2082l-5.69,-5.69c-1.0182,0.8478 -2.2256,1.4378 -3.52,1.7203c-1.2944,0.2825 -2.63787,0.249 -3.91665,-0.0975c-1.27879,-0.3465 -2.45531,-0.9959 -3.43004,-1.8933c-0.97474,-0.8973 -1.71901,-2.0162 -2.16987,-3.2621c-0.45085,-1.2458 -0.59503,-2.5819 -0.42033,-3.89524c0.1747,-1.31333 0.66314,-2.56528 1.424,-3.64993c0.76086,-1.08464 1.77175,-1.97009 2.94718,-2.58144c1.17542,-0.61135 2.48079,-0.93062 3.80571,-0.93079zM3.49989,10.25c0,0.8864 0.17459,1.7642 0.51381,2.5831c0.33922,0.819 0.83642,1.5631 1.46322,2.1899c0.62679,0.6268 1.37091,1.124 2.18985,1.4632c0.81895,0.3392 1.6967,0.5138 2.58313,0.5138c0.8864,0 1.7642,-0.1746 2.5831,-0.5138c0.8189,-0.3392 1.5631,-0.8364 2.1899,-1.4632c0.6268,-0.6268 1.124,-1.3709 1.4632,-2.1899c0.3392,-0.8189 0.5138,-1.6967 0.5138,-2.5831c0,-1.79021 -0.7112,-3.5071 -1.977,-4.77297c-1.2659,-1.26587 -2.9828,-1.97703 -4.773,-1.97703c-1.79022,0 -3.50711,0.71116 -4.77298,1.97703c-1.26587,1.26587 -1.97703,2.98276 -1.97703,4.77297z"></path></g></g></svg>